# xmcd
#
# Track frame offsets:
#	150
#	10239
#	21227
#	31408
#	43394
#	56319
#	68484
#	79573
#	93964
#	105952
#	119275
#	134646
#	147438
#	160046
#	171549
#	185253
#	198034
#	210291
#	225519
#	238954
#
# Disc length: 3329 seconds
#
# Revision: 1
# Processed by: cddbd v1.5.1PL2 Copyright (c) Steve Scherf et al.
# Submitted via: audiograbber 1.83.01
#
DISCID=040cff14
DTITLE=Conway Twitty - Gold - Disc One
DYEAR=2006
DGENRE=Country
TTITLE0=It's Only Make Believe
TTITLE1=Mona Lisa
TTITLE2=Lonely Blue Boy
TTITLE3=What Am I Living For
TTITLE4=Next In Line
TTITLE5=To See My Angel Cry
TTITLE6=Hello Darlin'
TTITLE7=Fifteen Years Ago
TTITLE8=After The Fire Is Gone
TTITLE9=How Much Can She Stand
TTITLE10=(Lost Her Love) On Our Last Date
TTITLE11=I Can't Stop Loving You
TTITLE12=She Needs Someone To Hold Her (When She Cries)
TTITLE13=Louisiana Woman, Mississippi Man
TTITLE14=You've Never Been This Far Before
TTITLE15=I See The Want In Your Eyes
TTITLE16=Linda On My Mind
TTITLE17=Touch The Hand
TTITLE18=After All The Good Is Gone
TTITLE19=(I Can't Believe) She Gives It All To Me
EXTD=
EXTT0=
EXTT1=
EXTT2=
EXTT3=
EXTT4=
EXTT5=
EXTT6=
EXTT7=
EXTT8=
EXTT9=
EXTT10=
EXTT11=
EXTT12=
EXTT13=
EXTT14=
EXTT15=
EXTT16=
EXTT17=
EXTT18=
EXTT19=
PLAYORDER=
